<svg xmlns="http://www.w3.org/2000/svg" width="100%" viewBox="372 158 444 444" preserveAspectRatio="xMidYMid meet" role="img" aria-label="Vennly">
<circle cx="594.5" cy="381.1" r="216.4" fill="#FFF6D7"/>
<path d="M 566.890625 469.84375 C 555.816406 472.25 547.132812 464.992188 545.015625 455.195312 C 540.085938 456.152344 535.636719 455 531.796875 451.667969 C 528.042969 448.410156 525.714844 444.390625 525.226562 439.449219 C 511.53125 436.960938 505.90625 428.285156 510.472656 416.527344 C 506.226562 413.046875 501.925781 409.519531 497.464844 405.863281 C 497.101562 406.4375 496.886719 406.75 496.699219 407.082031 C 494.207031 411.46875 490.835938 413.324219 486.019531 411.90625 C 475.386719 408.78125 464.824219 405.40625 454.335938 401.835938 C 449.621094 400.230469 447.832031 395.667969 449.464844 390.421875 C 453.027344 378.972656 456.726562 367.566406 460.382812 356.144531 C 465.835938 339.097656 471.3125 322.058594 476.753906 305.007812 C 478.003906 301.097656 479.945312 297.878906 484.460938 297.398438 C 485.890625 297.246094 487.441406 297.433594 488.832031 297.832031 C 498.691406 300.675781 508.542969 303.539062 518.351562 306.550781 C 522.34375 307.777344 525.855469 309.8125 526.320312 314.578125 C 526.472656 316.09375 526.113281 317.660156 525.960938 319.535156 C 528.511719 319.535156 531.199219 320.035156 533.621094 319.445312 C 542.152344 317.367188 550.585938 314.886719 559.066406 312.605469 C 565.804688 310.789062 572.546875 308.976562 579.316406 307.277344 C 587.117188 305.316406 594.664062 305.910156 601.6875 310.105469 C 602.90625 310.832031 603.664062 310.589844 604.742188 309.902344 C 611.113281 305.851562 617.765625 302.621094 625.546875 302.324219 C 631.304688 302.101562 636.542969 303.996094 641.820312 305.804688 C 653.476562 309.789062 665.101562 313.863281 676.753906 317.847656 C 681.550781 319.488281 686.464844 320.257812 691.734375 319.351562 C 691.65625 318.914062 691.597656 318.554688 691.527344 318.199219 C 690.339844 312.300781 692.421875 308.714844 698.222656 306.953125 C 708.355469 303.878906 718.5 300.828125 728.667969 297.859375 C 734.378906 296.1875 738.34375 298.195312 740.207031 303.878906 C 747.824219 327.125 755.355469 350.398438 762.894531 373.671875 C 764.636719 379.0625 766.328125 384.46875 767.960938 389.894531 C 769.875 396.25 767.453125 400.722656 761.171875 402.683594 C 752.234375 405.472656 743.289062 408.234375 734.375 411.097656 C 727.851562 413.191406 724.1875 412.882812 720.027344 405.917969 C 714.734375 410.28125 709.476562 414.589844 704.277344 418.972656 C 703.945312 419.25 703.855469 420.1875 704.042969 420.660156 C 708.507812 431.835938 697.222656 443.300781 687.480469 443.039062 C 687.074219 443.027344 686.667969 443.039062 685.953125 443.039062 C 685.535156 449.113281 682.515625 453.695312 677.675781 457.152344 C 672.835938 460.609375 667.609375 461.859375 661.988281 459.84375 C 660.277344 462.382812 658.898438 465.027344 656.964844 467.171875 C 651.355469 473.398438 644.65625 476.640625 636.050781 473.953125 C 635.402344 473.75 634.363281 474.246094 633.714844 474.707031 C 631.367188 476.363281 629.1875 478.269531 626.796875 479.859375 C 620.527344 484.027344 614.023438 484.34375 607.539062 480.429688 C 604.605469 478.660156 601.902344 476.503906 598.148438 473.851562 C 596.761719 475.570312 595.375 477.644531 593.644531 479.375 C 588.609375 484.414062 581.894531 485.199219 575.828125 481.589844 C 571.335938 478.921875 568.144531 475.214844 566.894531 469.839844 Z M 597.445312 437.980469 C 605.503906 438.222656 610.652344 441.964844 613.34375 449.128906 C 613.507812 449.554688 613.851562 449.96875 614.21875 450.253906 C 620.675781 455.335938 627.042969 460.546875 633.65625 465.421875 C 641.101562 470.910156 650.164062 468.484375 654.351562 460.128906 C 655.378906 458.082031 655.710938 456.152344 653.3125 454.628906 C 651.722656 453.621094 650.300781 452.34375 648.828125 451.15625 C 636.023438 440.847656 623.222656 430.535156 610.421875 420.222656 C 608.804688 418.921875 608.390625 416.855469 609.5 415.464844 C 610.59375 414.089844 612.5625 414.121094 614.296875 415.511719 C 629.25 427.480469 644.1875 439.46875 659.167969 451.402344 C 666.011719 456.855469 674.738281 454.757812 678.535156 446.847656 C 679.996094 443.804688 679.433594 441.179688 676.867188 439.089844 C 669.027344 432.707031 661.199219 426.308594 653.339844 419.949219 C 644.585938 412.863281 635.800781 405.816406 627.039062 398.738281 C 625.320312 397.347656 624.984375 395.203125 626.308594 393.773438 C 627.785156 392.179688 629.316406 392.527344 630.863281 393.789062 C 638.503906 400.023438 646.152344 406.253906 653.820312 412.457031 C 662.957031 419.851562 672.027344 427.335938 681.308594 434.546875 C 686.554688 438.625 692.5625 437.179688 696.902344 431.300781 C 700.148438 426.894531 699.058594 422.1875 694.019531 418.0625 C 681.359375 407.703125 668.738281 397.296875 656.125 386.882812 C 643.253906 376.253906 630.371094 365.644531 617.59375 354.910156 C 614.621094 352.417969 611.671875 352.363281 608.46875 353.933594 C 606.035156 355.121094 603.652344 356.425781 601.3125 357.789062 C 594.503906 361.765625 587.835938 366.003906 580.898438 369.738281 C 575.441406 372.671875 569.476562 373.886719 563.238281 372.570312 C 556.617188 371.171875 551.792969 367.5625 549.867188 360.898438 C 548.046875 354.609375 550.09375 349.105469 554.976562 345.195312 C 564.207031 337.804688 573.738281 330.777344 583.285156 323.792969 C 587.621094 320.617188 592.292969 317.902344 597.203125 314.726562 C 595.855469 314.15625 594.9375 313.675781 593.960938 313.371094 C 589.777344 312.074219 585.554688 311.984375 581.324219 313.152344 C 569.773438 316.347656 558.226562 319.558594 546.671875 322.738281 C 539.703125 324.65625 532.761719 326.851562 525.375 325.789062 C 523.804688 325.5625 523.457031 326.460938 523.070312 327.644531 C 519.566406 338.328125 516.03125 349 512.492188 359.671875 C 508.277344 372.367188 504.035156 385.054688 499.871094 397.765625 C 499.644531 398.449219 499.703125 399.699219 500.144531 400.0625 C 504.824219 403.933594 509.605469 407.679688 514.867188 411.867188 C 515.710938 410.816406 516.492188 409.644531 517.46875 408.664062 C 521.175781 404.933594 524.769531 401.0625 528.734375 397.625 C 535.082031 392.113281 543.789062 392.472656 549.621094 398.515625 C 551.707031 400.675781 553.011719 403.585938 554.714844 406.222656 C 564.96875 402.253906 574.863281 408.195312 576.871094 419.609375 C 582.464844 418.191406 587.789062 418.660156 592.296875 422.675781 C 596.816406 426.703125 598.671875 431.730469 597.445312 437.980469 Z M 693.886719 325.765625 C 686.3125 326.648438 679.140625 325.503906 672.152344 323.078125 C 660.441406 319.015625 648.640625 315.191406 637.082031 310.738281 C 627.832031 307.175781 619.339844 308.300781 611.167969 313.261719 C 597.1875 321.75 583.277344 330.359375 570.421875 340.539062 C 566.8125 343.394531 563.09375 346.128906 559.613281 349.136719 C 553.8125 354.152344 554.390625 361.695312 560.816406 365.097656 C 562.433594 365.953125 564.363281 366.445312 566.191406 366.621094 C 572.570312 367.242188 578 364.660156 583.296875 361.421875 C 590.441406 357.054688 597.699219 352.859375 605.011719 348.773438 C 611.191406 345.316406 617.097656 345.679688 622.4375 350.714844 C 623.929688 352.121094 625.53125 353.421875 627.113281 354.730469 C 643.902344 368.617188 660.699219 382.492188 677.488281 396.375 C 684.832031 402.449219 692.167969 408.527344 699.648438 414.71875 C 700.328125 414.15625 701.019531 413.59375 701.703125 413.027344 C 706.066406 409.402344 710.398438 405.742188 714.796875 402.167969 C 718.238281 399.371094 718.253906 399.425781 716.796875 395.035156 C 711.738281 379.753906 706.699219 364.46875 701.644531 349.1875 C 699.074219 341.40625 696.492188 333.625 693.886719 325.765625 Z M 762.210938 392.871094 C 762.089844 392.429688 761.90625 391.632812 761.65625 390.855469 C 754.726562 369.300781 747.792969 347.746094 740.847656 326.195312 C 738.707031 319.558594 736.523438 312.9375 734.367188 306.308594 C 733.734375 304.367188 732.699219 303.117188 730.394531 303.804688 C 720.253906 306.828125 710.105469 309.835938 699.957031 312.839844 C 698.140625 313.375 697.472656 314.640625 697.71875 316.402344 C 697.851562 317.367188 698.171875 318.316406 698.480469 319.25 C 705.507812 340.679688 712.53125 362.113281 719.597656 383.535156 C 721.757812 390.078125 724 396.59375 726.292969 403.089844 C 727.238281 405.773438 728.578125 406.328125 731.261719 405.484375 C 732.671875 405.042969 734.074219 404.582031 735.480469 404.132812 C 743.449219 401.582031 751.414062 399.019531 759.390625 396.492188 C 761.035156 395.972656 762.1875 395.121094 762.210938 392.871094 Z M 519.933594 316.492188 C 519.855469 313.964844 518.394531 313.039062 516.394531 312.449219 C 506.945312 309.675781 497.515625 306.832031 488.082031 304.015625 C 484.769531 303.027344 484.019531 303.417969 482.902344 306.871094 C 478.585938 320.21875 474.285156 333.574219 469.984375 346.929688 C 465.230469 361.695312 460.472656 376.457031 455.734375 391.226562 C 454.695312 394.46875 455.28125 395.597656 458.398438 396.601562 C 467.539062 399.539062 476.679688 402.480469 485.824219 405.40625 C 489.261719 406.503906 490.4375 405.929688 491.558594 402.546875 C 500.867188 374.414062 510.164062 346.277344 519.460938 318.140625 C 519.664062 317.519531 519.820312 316.882812 519.933594 316.492188 Z M 591.785156 435.351562 C 591.386719 430.324219 589.28125 427.496094 585.664062 425.792969 C 582.304688 424.214844 578.144531 424.902344 575.410156 427.609375 C 568.175781 434.765625 560.988281 441.972656 553.855469 449.234375 C 552.984375 450.121094 552.324219 451.390625 551.976562 452.597656 C 550.953125 456.167969 553.070312 460.121094 557.113281 462.582031 C 560.972656 464.933594 564.925781 464.929688 567.804688 462.089844 C 575.109375 454.894531 582.335938 447.617188 589.402344 440.1875 C 590.765625 438.757812 591.246094 436.488281 591.785156 435.351562 Z M 570.855469 420.96875 C 570.660156 420.851562 570.464844 420.734375 570.269531 420.617188 C 570.445312 417.222656 568.066406 413.566406 564.679688 412.03125 C 561.214844 410.453125 556.761719 411.292969 553.761719 414.257812 C 547.328125 420.609375 540.925781 426.992188 534.570312 433.417969 C 530.707031 437.320312 530.847656 442.238281 534.789062 446.011719 C 539.503906 450.523438 543.734375 450.652344 547.871094 446.464844 C 554.398438 439.859375 561.019531 433.34375 567.4375 426.632812 C 568.921875 425.074219 569.734375 422.875 570.855469 420.96875 Z M 608.058594 453.253906 C 607.855469 453.148438 607.65625 453.042969 607.453125 452.941406 C 607.449219 449.769531 604.953125 446.078125 601.8125 444.894531 C 598.230469 443.546875 594.722656 443.960938 591.953125 446.613281 C 586.554688 451.78125 581.367188 457.171875 576.105469 462.484375 C 572.453125 466.171875 572.402344 470.308594 575.925781 473.960938 C 579.972656 478.148438 585.277344 478.847656 588.84375 475.429688 C 594.179688 470.308594 599.5 465.164062 604.546875 459.765625 C 606.175781 458.023438 606.914062 455.449219 608.058594 453.253906 Z M 548.292969 408.859375 C 548.148438 408.765625 548.007812 408.671875 547.863281 408.578125 C 547.746094 408.023438 547.660156 407.457031 547.507812 406.910156 C 545.421875 399.53125 537.445312 397.574219 531.546875 403.164062 C 526.839844 407.628906 522.476562 412.449219 517.804688 416.953125 C 512.847656 421.738281 514.789062 429.523438 521.3125 432.578125 C 523.15625 433.441406 525.335938 433.988281 527.085938 432.269531 C 533.359375 426.113281 539.628906 419.953125 545.746094 413.636719 C 546.953125 412.390625 547.464844 410.46875 548.296875 408.859375 Z M 603.503906 469.78125 C 614.882812 478.957031 621.578125 478.96875 628.886719 469.804688 C 623.746094 465.691406 618.609375 461.578125 613.253906 457.292969 C 611.652344 463.066406 606.722656 465.632812 603.503906 469.78125 Z M 603.503906 469.78125 " fill="#C28A3A"/>
</svg>